<svg
  viewBox="0 0 176 176"
  fill="none"
  xmlns="http://www.w3.org/2000/svg"
>
  <path
    d="M176 88C176 136.601 136.601 176 88 176C39.3989 176 0 136.601 0 88C0 39.3989 39.3989 0 88 0C136.601 0 176 39.3989 176 88Z"
    fill="#E6F4E7"
    fill-opacity="0.5"
  />
  <path
    d="M46.75 48.125C46.75 45.0874 49.2124 42.625 52.25 42.625H123.75C126.788 42.625 129.25 45.0874 129.25 48.125V136.125C129.25 139.163 126.788 141.625 123.75 141.625H52.25C49.2124 141.625 46.75 139.163 46.75 136.125V48.125Z"
    fill="#E3E7EF"
  />
  <path
    d="M111.674 50.3297H64.2028V37.7396C64.2028 36.2208 65.4341 34.9896 66.9528 34.9896H75.95C77.1592 29.8339 82.1138 26.1459 87.8579 26.1253C93.6241 26.0888 98.6126 29.8026 99.7658 34.9896H108.924C110.443 34.9896 111.674 36.2208 111.674 37.7395L111.674 50.3297Z"
    fill="#808FA7"
  />
  <path
    d="M77.7306 68.6294L66.1247 80.2345C65.2652 81.0941 63.8711 81.0941 63.0108 80.2345L57.0198 74.243C56.16 73.3834 56.16 71.9891 57.0198 71.1293C57.8797 70.2694 59.2737 70.2694 60.1333 71.129L64.5682 75.564L74.6166 65.5155C75.4765 64.6556 76.8707 64.6563 77.7303 65.5155C78.5899 66.3753 78.5899 67.7691 77.7306 68.6294Z"
    fill="#808FA7"
  />
  <path
    d="M77.7306 90.6293L66.1247 102.234C65.2652 103.094 63.8711 103.094 63.0108 102.234L57.0198 96.243C56.16 95.3834 56.16 93.9891 57.0198 93.1293C57.8797 92.2694 59.2737 92.2694 60.1333 93.129L64.5682 97.564L74.6166 87.5155C75.4765 86.6556 76.8707 86.6563 77.7303 87.5155C78.5899 88.3753 78.5899 89.7691 77.7306 90.6293Z"
    fill="#808FA7"
  />
  <path
    d="M77.7306 112.629L66.1247 124.234C65.2652 125.094 63.8711 125.094 63.0108 124.234L57.0198 118.243C56.16 117.383 56.16 115.989 57.0198 115.129C57.8797 114.269 59.2737 114.269 60.1333 115.129L64.5682 119.564L74.6166 109.516C75.4765 108.656 76.8707 108.656 77.7303 109.516C78.5899 110.375 78.5899 111.769 77.7306 112.629Z"
    fill="#808FA7"
  />
  <path
    d="M85.25 72.875C85.25 71.3562 86.4812 70.125 88 70.125H116.875C118.394 70.125 119.625 71.3562 119.625 72.875C119.625 74.3938 118.394 75.625 116.875 75.625H88C86.4812 75.625 85.25 74.3938 85.25 72.875Z"
    fill="#D0D8E5"
  />
  <path
    d="M85.25 94.875C85.25 93.3562 86.4812 92.125 88 92.125H116.875C118.394 92.125 119.625 93.3562 119.625 94.875C119.625 96.3938 118.394 97.625 116.875 97.625H88C86.4812 97.625 85.25 96.3938 85.25 94.875Z"
    fill="#D0D8E5"
  />
  <path
    d="M85.25 116.875C85.25 115.356 86.4812 114.125 88 114.125H116.875C118.394 114.125 119.625 115.356 119.625 116.875C119.625 118.394 118.394 119.625 116.875 119.625H88C86.4812 119.625 85.25 118.394 85.25 116.875Z"
    fill="#D0D8E5"
  />
</svg>
