<svg
  width="22"
  height="28"
  viewBox="0 0 22 28"
  fill="none"
  xmlns="http://www.w3.org/2000/svg"
>
  <path
    d="M20.4758 6.63036C18.9556 2.9229 15.5008 -0.089662 10.1869 0.00203951H10.1889L9.14828 0.0984968C9.07074 0.113519 8.99334 0.128317 8.91616 0.143073C8.28138 0.264433 7.66169 0.382908 7.10572 0.599119C4.44841 1.63365 2.64563 3.26186 1.28709 5.58972C0.847597 6.34167 0.541247 7.26072 0.304181 8.19064C-0.829521 12.6405 1.40256 16.7997 3.75352 18.6725C3.8133 18.7202 3.87817 18.7725 3.94734 18.8284C4.58548 19.3438 5.58996 20.155 6.35173 20.3088C6.42466 19.7376 6.79677 19.4656 7.17063 19.1923C7.23203 19.1474 7.29347 19.1025 7.35365 19.0562H7.39305L6.67981 18.7288C6.19078 18.482 5.72079 18.1991 5.27372 17.8825C3.61495 16.6978 2.42147 14.9059 1.84341 12.6419C1.4637 11.1536 1.65593 9.17898 2.05534 7.90195C2.95266 5.03679 4.9762 3.05876 7.73472 2.06634C9.36836 1.47877 11.9985 1.45704 13.6118 2.08536C16.3533 3.15385 18.3218 5.01573 19.2382 7.90467C19.5398 8.85497 19.8617 10.3134 19.6233 11.6237C19.521 12.1372 19.4182 12.651 19.3149 13.1649C19.0194 14.1064 18.6187 14.9942 18.1011 15.7271C17.419 16.6945 16.5604 17.4929 15.7007 18.2923C14.9311 19.008 14.1606 19.7245 13.5153 20.5636C13.4371 20.6656 13.3459 20.7778 13.2484 20.8976C12.8318 21.4097 12.301 22.0622 12.186 22.6639L10.9531 22.24C10.8188 22.1988 10.6849 22.1587 10.5518 22.1187C10.0034 21.9542 9.46783 21.7934 8.96827 21.5852C8.91659 21.5636 8.86156 21.542 8.80488 21.5198C8.49431 21.398 8.13432 21.2568 8.00507 20.9874C7.79938 20.5354 8.44265 20.2725 8.76527 20.1407C8.78252 20.1336 8.79885 20.127 8.81408 20.1207C9.26823 19.9325 9.75247 19.7822 10.2355 19.6323C10.9625 19.4067 11.6868 19.1819 12.3015 18.8301C13.7109 18.0244 15.2671 16.6448 14.363 14.3408C14.1851 13.8938 13.9592 13.4674 13.6892 13.0692L13.3421 12.6066C13.3362 12.5942 13.335 12.578 13.3377 12.5589C13.3391 12.5565 13.3406 12.5539 13.342 12.5514C13.3498 12.5373 13.3575 12.5237 13.3604 12.5237C13.701 12.2292 13.8838 11.6546 13.9339 11.0378C13.9749 10.7455 13.9791 10.4347 13.9222 10.1401C13.9171 10.1137 13.9119 10.0876 13.9065 10.0617C13.8589 9.71859 13.7717 9.40326 13.6498 9.16127C13.6175 9.09736 13.5844 9.03555 13.5505 8.97579C13.2097 8.28234 12.7101 7.8698 12.0663 7.62737C11.0762 7.21496 9.79641 7.24995 8.23194 7.29273C7.78182 7.30504 7.30813 7.31799 6.811 7.32112L6.81023 7.31909L6.80955 7.32113L6.811 7.32112C6.81184 7.3231 6.81295 7.32506 6.81432 7.327L6.81227 7.32729L7.21983 8.96501C7.28753 9.29526 7.29374 9.65794 7.30004 10.0262C7.3067 10.4154 7.31347 10.8108 7.39305 11.1808C7.66815 12.4673 8.41535 13.3164 9.57011 13.724C10.1047 13.9142 10.9402 13.9882 11.5549 13.8014C11.9822 13.6707 12.3165 13.4534 12.6492 13.2371C12.6761 13.2196 12.7031 13.2021 12.7301 13.1846C13.0065 13.5861 13.302 14.0263 13.482 14.514C13.9426 15.7611 13.5948 16.6496 12.7878 17.2698C12.0365 17.8472 11.1779 18.2411 10.1482 18.5604C9.89809 18.638 9.64095 18.7054 9.38547 18.7724C8.18159 19.0879 7.01451 19.3937 6.79597 20.7184C6.63702 21.6796 7.36995 22.1232 7.89367 22.4336C8.58183 22.8411 9.4631 23.075 10.3357 23.3066C10.9204 23.4618 11.5013 23.616 12.0175 23.8207C12.0582 23.8368 12.1004 23.8532 12.1436 23.8701C12.6407 24.0637 13.2796 24.3127 13.4046 24.8226C13.5845 25.5451 12.6089 25.8886 12.1488 26.0505L12.133 26.0561C11.0394 26.4399 9.00428 26.4284 8.1253 25.8632C7.94491 25.7474 7.86325 25.5721 7.77857 25.3903C7.72869 25.2833 7.67776 25.174 7.60498 25.0732C6.62683 24.8049 7.05681 25.9882 7.37403 26.3061C8.02137 26.9596 8.99952 27.1728 10.1482 27.2313C11.8722 27.3189 13.658 26.7008 14.1559 25.9407C14.6884 25.1269 14.3787 23.7813 13.6165 23.4355C13.5081 23.1236 14.3054 22.1082 14.6254 21.7005C14.6623 21.6536 14.6928 21.6147 14.7149 21.5859C15.3516 20.7547 16.1219 20.0529 16.8911 19.3523C17.7279 18.5899 18.5634 17.8289 19.2239 16.9036C19.9129 15.9465 20.4461 14.8864 20.8039 13.7627C21.5259 11.4566 21.2909 8.62198 20.4758 6.63036Z"
    fill="white"
  />
</svg>
