<svg width="45" height="41" viewBox="0 0 45 41" fill="none" xmlns="http://www.w3.org/2000/svg">
    <g clip-path="url(#clip0_709_181)">
        <path fill-rule="evenodd" clip-rule="evenodd"
            d="M22.1302 0.00165299C26.4291 -0.0726696 29.224 2.36897 30.4538 5.3738C31.1132 6.98798 31.3034 9.28538 30.7192 11.1545C30.4298 12.0652 29.9984 12.9244 29.441 13.7001C28.4156 15.1392 26.8687 16.0884 25.7933 17.495C25.6202 17.7213 24.8069 18.7122 24.9048 18.9941C25.5213 19.2743 25.7719 20.365 25.3411 21.0245C24.9383 21.6406 23.4936 22.1415 22.0989 22.0705C21.1697 22.0232 20.3784 21.8503 19.8547 21.3207C19.5981 21.063 19.2502 20.104 20.0415 20.3215C20.2003 20.5417 20.2305 20.8125 20.4624 20.9617C21.1735 21.4198 22.8199 21.4291 23.7046 21.1181C24.0711 20.9887 24.8806 20.7107 24.7333 20.1183C24.6234 19.6691 24.0222 19.4698 23.6112 19.3063C22.5704 18.8928 21.2048 18.7337 20.2751 18.1821C19.8514 17.9305 19.2585 17.571 19.387 16.792C19.6014 15.4905 20.9433 15.4024 22.0989 15.0429C22.932 14.7842 23.6266 14.4648 24.2343 13.9969C24.8872 13.4942 25.1685 12.7741 24.796 11.7633C24.6503 11.3681 24.4113 11.0113 24.1876 10.6859C23.8964 10.8748 23.6106 11.0713 23.237 11.1858C22.7397 11.3372 22.0637 11.2772 21.6313 11.1231C20.6971 10.7928 20.0926 10.1046 19.8701 9.06186C19.7448 8.47829 19.8426 7.81654 19.7299 7.266C19.62 6.82337 19.5101 6.38092 19.4002 5.93866C19.4365 5.93315 19.4689 5.94746 19.5052 5.94251C19.4849 5.93755 19.5964 5.94251 19.5755 5.93866C22.6352 5.92214 24.6399 5.56814 25.152 8.21843C25.2565 8.76016 25.1064 9.36961 24.9322 9.7181C24.8729 9.83702 24.6426 10.1338 24.6828 10.2174L24.9636 10.5924C25.182 10.9151 25.3647 11.2607 25.5087 11.623C26.2401 13.4904 24.9811 14.6085 23.8409 15.2615C23.0133 15.736 21.9401 15.9254 21.0197 16.3075C20.7768 16.4082 20.1899 16.6241 20.3652 17.01C20.4888 17.2682 20.8735 17.381 21.1444 17.4944C21.6467 17.7042 22.194 17.8545 22.7501 18.0252L23.7475 18.3687C23.8623 17.767 24.4893 17.1025 24.8229 16.6664C25.928 15.2268 27.4869 14.2325 28.5327 12.7466C28.9514 12.1526 29.2756 11.433 29.5147 10.67C29.5982 10.2534 29.6814 9.83702 29.7642 9.42081C29.957 8.35882 29.6966 7.17682 29.4526 6.40661C28.7113 4.06517 27.1188 2.55615 24.9009 1.69015C23.5958 1.18091 21.4681 1.19852 20.1465 1.67474C17.9149 2.47908 16.2779 4.08224 15.5519 6.40441C15.2288 7.43942 15.0733 9.03984 15.3805 10.2461C15.8481 12.081 16.8136 13.5333 18.1556 14.4935C18.5172 14.7501 18.8975 14.9793 19.2931 15.1794L19.8701 15.4448H19.8382C19.4931 15.7107 19.0963 15.921 19.0277 16.46C18.3446 16.3218 17.4203 15.529 16.9257 15.1337C15.0239 13.6159 13.2181 10.245 14.1353 6.63839C14.3271 5.8847 14.5749 5.13983 14.9304 4.53038C16.0295 2.64369 17.4879 1.32405 19.6376 0.485576C20.1421 0.289034 20.7114 0.19214 21.29 0.0798301L22.1319 0.00165299H22.1302Z"
            fill="white" />
        <path
            d="M10.8261 31.7814C10.2705 31.7814 10.048 31.5089 10.048 31.0657C10.0477 30.9416 10.056 30.8176 10.0727 30.6947H10.048C10.048 30.6947 9.5534 31.9312 8.06035 31.9312C6.98659 31.9312 5.93701 31.276 5.93701 30.0263C5.93701 28.0108 8.65329 27.8869 9.70232 27.8869H9.97433V27.8253C9.97433 26.7242 9.56659 26.3284 8.59119 26.3284C8.295 26.3284 7.56689 26.4027 7.56689 26.8106V27.1696H6.44532V26.5497C6.44532 25.5229 8.00101 25.3743 8.60603 25.3743C10.6305 25.3743 11.1739 26.4379 11.1739 27.8236V30.4844C11.1739 30.6699 11.2728 30.7563 11.4454 30.7563H11.9515V31.7831L10.8261 31.7814ZM9.98642 28.7634H9.67814C8.77693 28.7634 7.14705 28.8129 7.14705 29.963C7.14705 30.4701 7.53172 30.965 8.31973 30.965C9.33194 30.965 9.98642 29.9013 9.98642 28.9737V28.7634ZM16.074 31.9295C14.6914 31.9295 14.1606 30.9275 14.1606 30.9275H14.1358C14.1358 30.9275 14.1606 31.1505 14.1606 31.472V34.255H12.9626V26.8227C12.9626 26.6372 12.8643 26.5508 12.6912 26.5508H12.185V25.5229H13.3083C13.8638 25.5229 14.0737 25.758 14.0737 26.1538C14.0737 26.3394 14.0617 26.4875 14.0617 26.4875H14.0864C14.0864 26.4875 14.6046 25.3743 16.1603 25.3743C17.839 25.3743 18.9134 26.7104 18.9134 28.6522C18.9134 30.6435 17.7044 31.9295 16.074 31.9295ZM15.9256 26.4241C14.9997 26.4241 14.1232 27.0798 14.1232 28.6753C14.1232 29.7885 14.7277 30.9017 15.8888 30.9017C16.8779 30.9017 17.6912 30.0852 17.6912 28.6626C17.6912 27.3023 16.9626 26.4241 15.9256 26.4241ZM23.2639 31.9295C21.8813 31.9295 21.3505 30.9275 21.3505 30.9275H21.3257C21.3257 30.9275 21.3505 31.1505 21.3505 31.472V34.255H20.1525V26.8227C20.1525 26.6372 20.0542 26.5508 19.8811 26.5508H19.375V25.5229H20.4982C21.0537 25.5229 21.2636 25.758 21.2636 26.1538C21.2636 26.3394 21.2516 26.4875 21.2516 26.4875H21.2763C21.2763 26.4875 21.7945 25.3743 23.3502 25.3743C25.029 25.3743 26.1033 26.7104 26.1033 28.6522C26.1033 30.6435 24.8943 31.9295 23.2639 31.9295ZM23.1155 26.4241C22.1896 26.4241 21.3131 27.0798 21.3131 28.6753C21.3131 29.7885 21.9176 30.9017 23.0787 30.9017C24.0678 30.9017 24.8811 30.0852 24.8811 28.6626C24.8811 27.3023 24.1525 26.4241 23.1155 26.4241ZM32.5414 26.548C32.3315 26.548 32.2079 26.6097 32.1337 26.7952L30.2324 31.7798H28.8503L26.927 26.7958C26.8528 26.6102 26.7418 26.5486 26.5423 26.5486H26.4187V25.5229H27.0369C27.5925 25.5229 27.8024 25.6589 27.9876 26.1538L29.3328 29.7527C29.4221 30.0205 29.4964 30.293 29.5553 30.5691H29.5801C29.6382 30.2931 29.7116 30.0206 29.7999 29.7527L31.1336 26.1538C31.3188 25.6583 31.5408 25.5229 32.0837 25.5229H32.664V26.5497L32.5414 26.548ZM37.8273 31.7781C37.2717 31.7781 37.0497 31.5056 37.0497 31.0624C37.0494 30.9383 37.0577 30.8143 37.0744 30.6914H37.0497C37.0497 30.6914 36.5551 31.9279 35.0621 31.9279C33.9883 31.9279 32.9387 31.2727 32.9387 30.023C32.9387 28.0075 35.6545 27.8836 36.704 27.8836H36.9755V27.822C36.9755 26.7209 36.5683 26.325 35.5929 26.325C35.2967 26.325 34.5681 26.3994 34.5681 26.8073V27.1663H33.447V26.5497C33.447 25.5229 35.0027 25.3743 35.6077 25.3743C37.6322 25.3743 38.1757 26.4379 38.1757 27.8236V30.4844C38.1757 30.6699 38.274 30.7563 38.4471 30.7563H38.9532V31.7831L37.8273 31.7781ZM36.9881 28.7601H36.6793C35.7781 28.7601 34.1515 28.8096 34.1515 29.9597C34.1515 30.4667 34.5362 30.9617 35.3242 30.9617C36.3364 30.9617 36.9909 29.898 36.9909 28.9704V28.7601H36.9881Z"
            fill="white" />
        <path
            d="M0.346746 39.3414V40.3164H0.000549316V37.7102H0.759435C0.902827 37.7066 1.04591 37.7251 1.18366 37.7652C1.29375 37.7983 1.39549 37.8546 1.48205 37.9304C1.56034 37.9999 1.62099 38.0871 1.659 38.1847C1.69881 38.2902 1.71857 38.4023 1.71725 38.515C1.71837 38.6282 1.69707 38.7405 1.6546 38.8454C1.61358 38.9449 1.55065 39.0339 1.47051 39.1058C1.38292 39.1824 1.28064 39.2403 1.16993 39.2759C1.03732 39.3184 0.898651 39.3389 0.759435 39.3364L0.346746 39.3414ZM0.346746 39.0617H0.759435C0.848635 39.0634 0.937463 39.0498 1.02211 39.0215C1.09276 38.9985 1.15788 38.961 1.21334 38.9114C1.26448 38.8636 1.30428 38.8049 1.32984 38.7397C1.35684 38.6694 1.37027 38.5947 1.3694 38.5194C1.37343 38.4475 1.36197 38.3755 1.3358 38.3083C1.30963 38.2412 1.26937 38.1804 1.21773 38.1302C1.11662 38.0366 0.963856 37.9904 0.759435 37.9904H0.346746V39.0617Z"
            fill="white" />
        <path
            d="M3.35262 40.3165H3.2103C3.18444 40.3175 3.15869 40.3126 3.13501 40.3022C3.12428 40.2955 3.11525 40.2864 3.10867 40.2756C3.10208 40.2648 3.09812 40.2526 3.0971 40.2399L3.06138 40.0693C3.01302 40.1128 2.96686 40.1519 2.92125 40.1865C2.8766 40.2205 2.82853 40.2496 2.77783 40.2735C2.72655 40.2983 2.67249 40.3167 2.61682 40.3286C2.55461 40.3412 2.49125 40.3473 2.42778 40.3467C2.36047 40.3473 2.29349 40.3371 2.22941 40.3165C2.17024 40.2979 2.1156 40.2671 2.06895 40.2262C2.02147 40.1841 1.98393 40.132 1.95904 40.0737C1.93065 40.0038 1.91699 39.9289 1.91893 39.8535C1.9193 39.7793 1.93982 39.7066 1.97828 39.6432C2.02558 39.5677 2.09143 39.5058 2.16951 39.4631C2.27743 39.4031 2.39377 39.3596 2.51461 39.3343C2.68621 39.2981 2.86131 39.2813 3.03665 39.2842V39.1394C3.03665 38.9959 3.00643 38.8871 2.94598 38.8129C2.91276 38.7751 2.87128 38.7455 2.82476 38.7264C2.77825 38.7073 2.72796 38.6993 2.67781 38.7028C2.61113 38.701 2.54467 38.7113 2.48163 38.7331C2.43327 38.7506 2.38686 38.7731 2.34316 38.8003C2.30414 38.8251 2.27117 38.8476 2.24259 38.8675C2.21878 38.886 2.18976 38.8966 2.15962 38.8977C2.13991 38.8978 2.12068 38.8916 2.10466 38.8801C2.08865 38.8689 2.07533 38.8542 2.06565 38.8372L2.0107 38.7337C2.10421 38.6405 2.21438 38.5658 2.33546 38.5135C2.4576 38.4639 2.58836 38.4392 2.72013 38.4408C2.81298 38.4391 2.90518 38.4565 2.99104 38.492C3.06628 38.5234 3.13351 38.5714 3.18777 38.6324C3.24341 38.6965 3.28514 38.7715 3.31031 38.8526C3.33861 38.9444 3.35252 39.04 3.35152 39.1361L3.35262 40.3165ZM2.52285 40.1188C2.5748 40.1191 2.62662 40.1134 2.67726 40.1018C2.72303 40.0905 2.76731 40.0739 2.80915 40.0522C2.85113 40.0308 2.89073 40.0049 2.92729 39.9751C2.96644 39.9434 3.00318 39.9088 3.0372 39.8716V39.4918C2.91169 39.4901 2.78628 39.4995 2.66243 39.5198C2.57594 39.5337 2.49156 39.5585 2.4113 39.5936C2.35557 39.6176 2.30693 39.6555 2.27007 39.7037C2.24113 39.7441 2.22574 39.7927 2.22611 39.8425C2.22519 39.8857 2.23323 39.9286 2.24974 39.9685C2.26374 40.0019 2.28516 40.0317 2.31238 40.0555C2.33964 40.0785 2.37149 40.0954 2.4058 40.1051C2.44396 40.1152 2.48338 40.1198 2.52285 40.1188Z"
            fill="white" />
        <path
            d="M3.8362 40.3165V38.4744H4.01919C4.04482 38.4716 4.07056 38.4787 4.09117 38.4942C4.10684 38.514 4.11622 38.5379 4.1181 38.5631L4.13953 38.8504C4.19252 38.734 4.27125 38.6312 4.36978 38.5499C4.46124 38.4771 4.575 38.4382 4.6918 38.4397C4.738 38.4393 4.78405 38.4452 4.82863 38.4574C4.86712 38.4687 4.90404 38.4847 4.93853 38.5053L4.89732 38.7475C4.89498 38.7603 4.88817 38.7719 4.87811 38.7802C4.86804 38.7884 4.85538 38.7929 4.84237 38.7926C4.81604 38.7907 4.79013 38.7849 4.76543 38.7756C4.71808 38.7623 4.66897 38.7563 4.61981 38.758C4.51791 38.7555 4.41876 38.7912 4.34175 38.8582C4.25794 38.9373 4.19377 39.0349 4.15437 39.1433V40.3165H3.8362Z"
            fill="white" />
        <path
            d="M5.83314 40.3457C5.77277 40.3494 5.71227 40.3405 5.6555 40.3196C5.59874 40.2986 5.54695 40.2661 5.50343 40.224C5.42595 40.1425 5.38748 40.0258 5.38748 39.8727V38.7452H5.16768C5.14999 38.7458 5.13272 38.7398 5.11932 38.7282C5.11215 38.721 5.10666 38.7124 5.10324 38.7029C5.09982 38.6934 5.09855 38.6832 5.09954 38.6731V38.5437L5.39737 38.5058L5.47046 37.9365C5.47249 37.9194 5.48094 37.9036 5.49409 37.8925C5.50783 37.8803 5.52577 37.874 5.5441 37.8748H5.70565V38.5096H6.22605V38.7441H5.70565V39.8502C5.70054 39.9126 5.7203 39.9746 5.76061 40.0225C5.77954 40.0411 5.8021 40.0556 5.82687 40.065C5.85164 40.0745 5.87809 40.0788 5.90458 40.0775C5.9341 40.078 5.96347 40.0733 5.9914 40.0638C6.01353 40.0557 6.03487 40.0455 6.05515 40.0335C6.07328 40.023 6.08812 40.0126 6.10076 40.0038C6.11019 39.9957 6.12193 39.9909 6.13428 39.99C6.14372 39.9909 6.15279 39.9941 6.16059 39.9996C6.16839 40.005 6.17466 40.0123 6.17879 40.0208L6.27221 40.1755C6.21469 40.2293 6.14707 40.271 6.07328 40.2983C5.99681 40.3287 5.91541 40.3447 5.83314 40.3457Z"
            fill="white" />
        <path
            d="M8.04881 38.4452C8.17205 38.4434 8.2944 38.4662 8.40874 38.5123C8.51348 38.5545 8.60739 38.6198 8.6835 38.7034C8.76078 38.7902 8.8195 38.8919 8.85605 39.0023C8.93593 39.2579 8.93593 39.5318 8.85605 39.7874C8.81938 39.8976 8.76067 39.9991 8.6835 40.0858C8.60718 40.1688 8.51331 40.2337 8.40874 40.2757C8.17703 40.3638 7.92114 40.3638 7.68942 40.2757C7.585 40.2334 7.49118 40.1686 7.41466 40.0858C7.33699 39.9992 7.27772 39.8976 7.24047 39.7874C7.15912 39.532 7.15912 39.2576 7.24047 39.0023C7.27758 38.8918 7.33686 38.7901 7.41466 38.7034C7.49098 38.6201 7.58483 38.5548 7.68942 38.5123C7.80358 38.4662 7.92575 38.4434 8.04881 38.4452ZM8.04881 40.0891C8.2285 40.0891 8.36259 40.0285 8.45106 39.9063C8.53953 39.7841 8.58349 39.6145 8.58349 39.3965C8.58349 39.1785 8.53953 39.0062 8.45106 38.8834C8.36259 38.7606 8.2285 38.7001 8.04881 38.7001C7.96739 38.6981 7.88654 38.7141 7.81197 38.7469C7.74583 38.778 7.68829 38.8249 7.64436 38.8834C7.59639 38.9493 7.56218 39.0242 7.5438 39.1036C7.49989 39.2968 7.49989 39.4973 7.5438 39.6905C7.56231 39.7689 7.59652 39.8427 7.64436 39.9074C7.68834 39.9656 7.74589 40.0121 7.81197 40.0428C7.88652 40.0756 7.96742 40.0914 8.04881 40.0891Z"
            fill="white" />
        <path
            d="M9.38028 40.3164V38.7507L9.17916 38.727C9.15688 38.7221 9.13589 38.7126 9.11761 38.6989C9.10949 38.6923 9.10305 38.6839 9.09884 38.6743C9.09464 38.6647 9.09278 38.6543 9.09343 38.6438V38.5112H9.38028V38.3328C9.37872 38.2374 9.39359 38.1424 9.42425 38.052C9.45072 37.9745 9.49366 37.9037 9.55009 37.8445C9.60523 37.7877 9.67223 37.7439 9.74626 37.7162C9.82899 37.686 9.91652 37.6713 10.0045 37.6727C10.0815 37.672 10.1581 37.6842 10.2309 37.709L10.2238 37.8709C10.2247 37.8806 10.2221 37.8904 10.2165 37.8984C10.2108 37.9064 10.2025 37.9121 10.193 37.9144C10.1665 37.9202 10.1394 37.9228 10.1122 37.9221H10.0573C10.0065 37.9215 9.95588 37.9287 9.90727 37.9436C9.86376 37.9578 9.82422 37.9821 9.79187 38.0146C9.7572 38.0513 9.7316 38.0956 9.71714 38.144C9.69847 38.2083 9.68976 38.2752 9.69131 38.3422V38.5112H10.2172V38.7457H9.7023V40.3169L9.38028 40.3164Z"
            fill="white" />
        <path
            d="M10.9629 37.7101H11.241C11.268 37.7089 11.2947 37.7173 11.3162 37.7337C11.3355 37.7497 11.3503 37.7703 11.3591 37.7937L12.0861 39.6325C12.1036 39.6765 12.1189 39.7213 12.1317 39.7669C12.1455 39.8153 12.1592 39.866 12.1724 39.9183C12.1828 39.8632 12.1944 39.8153 12.207 39.7669C12.2189 39.7212 12.2335 39.6764 12.251 39.6325L12.9741 37.7937C12.984 37.7723 12.9987 37.7535 13.017 37.7387C13.0383 37.721 13.0652 37.7116 13.0928 37.7123H13.3725L12.3246 40.3185H12.0108L10.9629 37.7101Z"
            fill="white" />
        <path
            d="M14.0776 37.8957C14.0779 37.9263 14.0715 37.9565 14.0589 37.9844C14.0462 38.0113 14.0291 38.0358 14.0083 38.057C13.9875 38.0781 13.9629 38.0951 13.9358 38.1071C13.9081 38.1193 13.8781 38.1255 13.8479 38.1253C13.818 38.1256 13.7884 38.1194 13.7611 38.1071C13.7342 38.095 13.7098 38.078 13.6891 38.057C13.6684 38.0359 13.6517 38.0113 13.6396 37.9844C13.6278 37.9563 13.6219 37.9262 13.622 37.8957C13.622 37.865 13.628 37.8345 13.6396 37.806C13.6511 37.7782 13.6679 37.753 13.6891 37.7317C13.7097 37.7104 13.7341 37.6932 13.7611 37.681C13.7884 37.6688 13.818 37.6626 13.8479 37.6628C13.8781 37.6627 13.9081 37.6688 13.9358 37.681C13.963 37.693 13.9877 37.7102 14.0083 37.7317C14.0297 37.7531 14.0468 37.7783 14.0589 37.806C14.0713 37.8343 14.0777 37.8648 14.0776 37.8957ZM14.0061 38.4743V40.3164H13.6863V38.4743H14.0061Z"
            fill="white" />
        <path
            d="M15.12 40.3457C15.0596 40.3494 14.9991 40.3405 14.9424 40.3196C14.8856 40.2986 14.8338 40.2661 14.7903 40.224C14.7128 40.1425 14.6744 40.0258 14.6744 39.8727V38.7452H14.4546C14.4369 38.7458 14.4196 38.7398 14.4062 38.7282C14.399 38.721 14.3935 38.7124 14.3901 38.7029C14.3867 38.6934 14.3854 38.6832 14.3864 38.6731V38.5437L14.6843 38.5058L14.7579 37.9365C14.7595 37.9193 14.7678 37.9035 14.781 37.8925C14.7947 37.8803 14.8127 37.874 14.831 37.8748H14.9925V38.5096H15.5129V38.7441H14.9925V39.8502C14.9899 39.8811 14.9934 39.9123 15.0028 39.9418C15.0122 39.9714 15.0274 39.9988 15.0475 40.0225C15.0663 40.0411 15.0887 40.0556 15.1134 40.0651C15.1381 40.0746 15.1645 40.0788 15.1909 40.0775C15.2204 40.078 15.2498 40.0734 15.2777 40.0638C15.2999 40.0557 15.3212 40.0455 15.3415 40.0335C15.3596 40.023 15.3745 40.0126 15.3871 40.0038C15.3965 39.9957 15.4083 39.9909 15.4206 39.99C15.4301 39.9909 15.4391 39.9941 15.4469 39.9996C15.4547 40.005 15.461 40.0123 15.4651 40.0208L15.5585 40.1755C15.501 40.2293 15.4334 40.271 15.3596 40.2983C15.2833 40.3286 15.2021 40.3447 15.12 40.3457Z"
            fill="white" />
        <path
            d="M16.6273 38.4452C16.7303 38.444 16.8326 38.4627 16.9285 38.5003C17.0186 38.5358 17.1001 38.5902 17.1675 38.6599C17.2372 38.7341 17.2906 38.822 17.3241 38.9181C17.363 39.0307 17.3816 39.1492 17.3791 39.2683C17.382 39.303 17.3766 39.338 17.3632 39.3701C17.3561 39.3794 17.3468 39.3866 17.3361 39.3911C17.3254 39.3957 17.3137 39.3974 17.3022 39.396H16.0932C16.0935 39.4989 16.1092 39.6012 16.1399 39.6994C16.1646 39.7784 16.2048 39.8518 16.2581 39.9152C16.3071 39.9716 16.3686 40.0157 16.4378 40.044C16.5118 40.0736 16.591 40.0882 16.6708 40.0869C16.741 40.0883 16.8111 40.0789 16.8785 40.0589C16.9299 40.0427 16.9799 40.0223 17.0279 39.9977C17.0641 39.9794 17.0991 39.959 17.1329 39.9366C17.1539 39.9205 17.1791 39.9108 17.2054 39.9086C17.2174 39.9081 17.2293 39.9107 17.2399 39.9161C17.2506 39.9214 17.2597 39.9295 17.2664 39.9394L17.3566 40.0578C17.3161 40.1071 17.2683 40.1498 17.2148 40.1844C17.1593 40.2203 17.0999 40.2498 17.0378 40.2725C16.9747 40.2956 16.9096 40.313 16.8433 40.3242C16.7776 40.3356 16.7111 40.3413 16.6444 40.3413C16.5255 40.3426 16.4076 40.3207 16.2971 40.2769C16.1927 40.2348 16.0988 40.1702 16.0223 40.0875C15.9416 39.9986 15.8802 39.8937 15.8421 39.7797C15.7969 39.6436 15.775 39.5009 15.7772 39.3575C15.7764 39.235 15.7963 39.1132 15.836 38.9974C15.8721 38.8905 15.929 38.7918 16.0036 38.7073C16.078 38.6248 16.169 38.5591 16.2707 38.5146C16.3834 38.4665 16.5049 38.4429 16.6273 38.4452ZM16.6345 38.6836C16.5677 38.6799 16.5009 38.6901 16.4383 38.7134C16.3756 38.7367 16.3184 38.7726 16.2702 38.819C16.1756 38.9227 16.1176 39.0546 16.1053 39.1945H17.0944C17.0952 39.1245 17.0848 39.0548 17.0637 38.9881C17.0451 38.9286 17.0146 38.8735 16.9741 38.8262C16.9343 38.7807 16.885 38.7446 16.8296 38.7205C16.7678 38.6948 16.7014 38.6822 16.6345 38.6836Z"
            fill="white" />
        <path
            d="M19.0282 38.8012C19.0202 38.813 19.0104 38.8234 18.9991 38.8321C18.987 38.8404 18.9724 38.8443 18.9579 38.8431C18.9365 38.842 18.9161 38.8341 18.8996 38.8205C18.874 38.8024 18.8474 38.7857 18.8199 38.7704C18.7824 38.7501 18.743 38.7333 18.7023 38.7203C18.6472 38.7041 18.5899 38.6965 18.5325 38.6977C18.4517 38.6961 18.3715 38.7126 18.2979 38.7462C18.2303 38.7777 18.1714 38.8253 18.1264 38.8849C18.0778 38.9508 18.0425 39.0257 18.0226 39.1051C17.9742 39.2976 17.9742 39.499 18.0226 39.6915C18.0436 39.771 18.0796 39.8457 18.1286 39.9117C18.1722 39.9689 18.2287 40.0149 18.2935 40.046C18.3624 40.0776 18.4375 40.0934 18.5133 40.0923C18.5784 40.0942 18.6433 40.0847 18.7051 40.0642C18.7494 40.0485 18.7917 40.0275 18.8309 40.0014C18.8597 39.9822 18.8872 39.9613 18.9133 39.9387C18.9307 39.9216 18.9538 39.9116 18.9782 39.9106C18.9902 39.9098 19.0021 39.9123 19.0129 39.9177C19.0236 39.9231 19.0327 39.9313 19.0392 39.9414L19.1288 40.0598C19.0513 40.1571 18.949 40.2315 18.8326 40.275C18.7129 40.3209 18.5859 40.344 18.4578 40.3433C18.349 40.3444 18.2413 40.3228 18.1413 40.28C18.0439 40.2379 17.957 40.1747 17.8868 40.095C17.8116 40.0081 17.7541 39.9073 17.7176 39.7983C17.6744 39.6686 17.6534 39.5325 17.6555 39.3958C17.6539 39.2671 17.6724 39.1389 17.7104 39.016C17.7448 38.9056 17.8009 38.8032 17.8753 38.7148C17.9486 38.6295 18.0403 38.5621 18.1435 38.5177C18.2591 38.4685 18.3838 38.4443 18.5094 38.4467C18.625 38.4446 18.7398 38.4659 18.8469 38.5095C18.9443 38.5509 19.0326 38.6111 19.1068 38.6867L19.0282 38.8012Z"
            fill="white" />
        <path
            d="M21.5236 38.1175C21.515 38.1334 21.5034 38.1474 21.4895 38.1588C21.4758 38.1682 21.4594 38.1728 21.4428 38.172C21.4164 38.1698 21.3916 38.159 21.3719 38.1412C21.339 38.1169 21.3049 38.0943 21.2697 38.0735C21.2225 38.0455 21.1726 38.0225 21.1208 38.0047C21.0527 37.9826 20.9813 37.9722 20.9098 37.9738C20.8398 37.9728 20.7701 37.9836 20.7037 38.0058C20.6485 38.0244 20.5975 38.0538 20.5537 38.0922C20.5142 38.1275 20.4834 38.1714 20.4635 38.2205C20.4426 38.2709 20.4321 38.325 20.4328 38.3796C20.4309 38.4444 20.4502 38.5079 20.4877 38.5607C20.5255 38.6109 20.5732 38.6526 20.6279 38.6835C20.6905 38.7193 20.7566 38.7488 20.8251 38.7716L21.0515 38.8487C21.1285 38.8756 21.2037 38.9037 21.2774 38.9389C21.3491 38.9708 21.4156 39.0133 21.4747 39.065C21.5338 39.1172 21.5815 39.1812 21.6148 39.2528C21.6535 39.3392 21.6723 39.4333 21.6697 39.528C21.6711 39.6375 21.6525 39.7462 21.6148 39.849C21.5778 39.9469 21.5205 40.0359 21.4466 40.1099C21.3695 40.1865 21.2772 40.2462 21.1757 40.285C21.0592 40.329 20.9354 40.3505 20.8108 40.3483C20.6544 40.3503 20.4993 40.319 20.3558 40.2564C20.2233 40.1985 20.104 40.114 20.0052 40.0081L20.1058 39.8429C20.1152 39.8297 20.127 39.8184 20.1404 39.8093C20.1541 39.8003 20.1702 39.7956 20.1866 39.7956C20.2191 39.799 20.2494 39.8136 20.2723 39.8369C20.3112 39.8689 20.3517 39.8989 20.3938 39.9266C20.449 39.963 20.5079 39.9932 20.5696 40.0169C20.6503 40.046 20.7356 40.0598 20.8213 40.0576C20.896 40.0588 20.9703 40.0471 21.0411 40.023C21.1021 40.0024 21.1582 39.9694 21.2059 39.9261C21.2509 39.8841 21.2862 39.8328 21.3093 39.7758C21.3336 39.7139 21.3458 39.6479 21.345 39.5814C21.3472 39.5127 21.328 39.4449 21.29 39.3876C21.2529 39.336 21.2054 39.2929 21.1504 39.261C21.0884 39.2251 21.0226 39.1961 20.9543 39.1746L20.7284 39.1019C20.6514 39.0774 20.5758 39.0485 20.502 39.0155C20.4301 38.9842 20.3638 38.9412 20.3058 38.8883C20.2463 38.8337 20.1989 38.7671 20.1668 38.6929C20.0956 38.5138 20.0956 38.3142 20.1668 38.1352C20.202 38.0492 20.2541 37.9713 20.3201 37.9061C20.3914 37.8366 20.4759 37.7822 20.5685 37.7459C20.677 37.7043 20.7925 37.684 20.9087 37.6859C21.0428 37.6843 21.1761 37.7078 21.3016 37.7553C21.4176 37.8 21.5232 37.868 21.612 37.9551L21.5236 38.1175Z"
            fill="white" />
        <path
            d="M22.7941 38.4452C22.9173 38.4434 23.0396 38.4662 23.154 38.5123C23.2586 38.5547 23.3525 38.62 23.4287 38.7034C23.5058 38.7902 23.5644 38.8919 23.6007 39.0023C23.6813 39.2578 23.6813 39.5319 23.6007 39.7874C23.5643 39.8975 23.5057 39.9991 23.4287 40.0858C23.3523 40.1687 23.2585 40.2335 23.154 40.2757C22.9221 40.3638 22.666 40.3638 22.4341 40.2757C22.3297 40.2334 22.2359 40.1686 22.1594 40.0858C22.0819 39.9991 22.0228 39.8976 21.9857 39.7874C21.9044 39.532 21.9044 39.2577 21.9857 39.0023C22.0226 38.8918 22.0817 38.7901 22.1594 38.7034C22.2357 38.6201 22.3295 38.5548 22.4341 38.5123C22.5485 38.4662 22.6708 38.4434 22.7941 38.4452ZM22.7941 40.0891C22.9732 40.0891 23.1073 40.0285 23.1957 39.9063C23.2842 39.7841 23.3287 39.6145 23.3287 39.3965C23.3287 39.1785 23.2842 39.0062 23.1957 38.8834C23.1073 38.7606 22.9732 38.7001 22.7941 38.7001C22.7126 38.698 22.6318 38.714 22.5572 38.7469C22.491 38.7779 22.4334 38.8248 22.3896 38.8834C22.3416 38.9493 22.3074 39.0242 22.289 39.1036C22.2443 39.2967 22.2443 39.4974 22.289 39.6905C22.3076 39.7689 22.3418 39.8427 22.3896 39.9074C22.4334 39.9658 22.491 40.0123 22.5572 40.0428C22.6317 40.0758 22.7126 40.0916 22.7941 40.0891Z"
            fill="white" />
        <path
            d="M24.1244 40.3164V38.7507L23.9233 38.727C23.9009 38.7221 23.8797 38.7125 23.8612 38.6989C23.8532 38.6922 23.8468 38.6838 23.8426 38.6742C23.8384 38.6647 23.8365 38.6543 23.837 38.6438V38.5112H24.1244V38.3328C24.1226 38.2373 24.1375 38.1423 24.1684 38.052C24.1947 37.9746 24.2374 37.9038 24.2937 37.8445C24.3489 37.7876 24.4161 37.7438 24.4904 37.7162C24.5731 37.686 24.6607 37.6713 24.7487 37.6727C24.8255 37.672 24.9018 37.6842 24.9745 37.709L24.9674 37.8709C24.9674 37.8951 24.9564 37.91 24.9372 37.9144C24.9107 37.9202 24.8835 37.9228 24.8564 37.9221H24.8015C24.7506 37.9215 24.7 37.9287 24.6514 37.9436C24.6077 37.9577 24.5679 37.982 24.5355 38.0146C24.501 38.0513 24.4756 38.0956 24.4613 38.144C24.4424 38.2083 24.4336 38.2751 24.4355 38.3422V38.5112H24.9608V38.7457H24.4459V40.3169L24.1244 40.3164Z"
            fill="white" />
        <path
            d="M25.8137 40.3457C25.7533 40.3494 25.6928 40.3405 25.636 40.3196C25.5793 40.2986 25.5275 40.2661 25.4839 40.224C25.4065 40.1425 25.368 40.0258 25.368 39.8727V38.7452H25.1482C25.1305 38.7458 25.1132 38.7398 25.0998 38.7282C25.0927 38.721 25.0872 38.7124 25.0838 38.7029C25.0803 38.6934 25.0791 38.6832 25.08 38.6731V38.5437L25.3779 38.5058L25.4515 37.9365C25.4531 37.9193 25.4614 37.9035 25.4746 37.8925C25.4883 37.8803 25.5063 37.874 25.5246 37.8748H25.6862V38.5096H26.2066V38.7441H25.6862V39.8502C25.6835 39.8811 25.687 39.9123 25.6964 39.9418C25.7059 39.9714 25.7211 39.9988 25.7411 40.0225C25.7599 40.0411 25.7824 40.0556 25.8071 40.0651C25.8317 40.0746 25.8581 40.0788 25.8845 40.0775C25.9141 40.078 25.9434 40.0734 25.9714 40.0638C25.9935 40.0557 26.0148 40.0455 26.0351 40.0335C26.0532 40.023 26.0681 40.0126 26.0807 40.0038C26.0902 39.9957 26.1019 39.9909 26.1142 39.99C26.1237 39.9909 26.1328 39.9941 26.1405 39.9996C26.1483 40.005 26.1546 40.0123 26.1588 40.0208L26.2522 40.1755C26.1947 40.2293 26.127 40.271 26.0532 40.2983C25.9769 40.3286 25.8957 40.3447 25.8137 40.3457Z"
            fill="white" />
        <path
            d="M26.3648 38.4744H26.616C26.6374 38.4734 26.6586 38.4794 26.6763 38.4915C26.6941 38.5036 26.7074 38.5212 26.7143 38.5416L27.0627 39.7274L27.0896 39.8535C27.0979 39.8942 27.105 39.935 27.1111 39.9768C27.1204 39.935 27.1314 39.8942 27.1429 39.8535L27.1809 39.7274L27.5655 38.5344C27.5714 38.5165 27.5822 38.5006 27.5968 38.4887C27.6125 38.4765 27.6319 38.4701 27.6518 38.4705H27.7897C27.811 38.4696 27.8319 38.4761 27.8491 38.4887C27.8642 38.5004 27.8754 38.5163 27.8815 38.5344L28.2563 39.7274C28.2695 39.7698 28.281 39.8116 28.2914 39.8529C28.3019 39.8942 28.3112 39.9344 28.3211 39.9746C28.3273 39.9342 28.335 39.8924 28.3442 39.8491C28.3541 39.8056 28.364 39.7649 28.375 39.7274L28.73 38.5416C28.7361 38.5223 28.748 38.5054 28.764 38.4931C28.7813 38.4803 28.8024 38.4737 28.8239 38.4744H29.0641L28.4755 40.3165H28.2222C28.1914 40.3165 28.1672 40.2961 28.1579 40.2548L27.7557 39.0057C27.7464 38.9779 27.7387 38.9496 27.7326 38.9209L27.7144 38.8361L27.6963 38.9214C27.6905 38.9505 27.6828 38.9792 27.6732 39.0073L27.266 40.2548C27.2628 40.2721 27.2537 40.2877 27.2403 40.2989C27.2269 40.3102 27.2099 40.3164 27.1924 40.3165H26.9517L26.3648 38.4744Z"
            fill="white" />
        <path
            d="M30.6851 40.3165H30.5434C30.5175 40.3174 30.4918 40.3125 30.4681 40.3022C30.4575 40.2954 30.4486 40.2862 30.4422 40.2754C30.4357 40.2646 30.4318 40.2525 30.4307 40.2399L30.3944 40.0693C30.3466 40.1128 30.3005 40.1519 30.2549 40.1865C30.2102 40.2205 30.1622 40.2496 30.1114 40.2735C30.0602 40.2983 30.0061 40.3167 29.9504 40.3286C29.8882 40.3412 29.8249 40.3473 29.7614 40.3467C29.6941 40.3474 29.6271 40.3372 29.563 40.3165C29.5038 40.298 29.4491 40.2673 29.4026 40.2262C29.3551 40.1841 29.3176 40.132 29.2927 40.0737C29.264 40.0039 29.2503 39.9289 29.2525 39.8535C29.2529 39.7793 29.2734 39.7066 29.3119 39.6432C29.359 39.5677 29.4246 39.5057 29.5026 39.4631C29.6107 39.4032 29.7272 39.3597 29.8482 39.3343C30.0198 39.2981 30.1949 39.2813 30.3703 39.2842V39.1394C30.3703 38.9959 30.34 38.8871 30.2796 38.8129C30.2462 38.7753 30.2047 38.7459 30.1582 38.7268C30.1118 38.7077 30.0616 38.6995 30.0114 38.7028C29.9446 38.701 29.8779 38.7112 29.8147 38.7331C29.7666 38.7507 29.7203 38.7732 29.6768 38.8003C29.6378 38.8251 29.6042 38.8476 29.5762 38.8675C29.5522 38.886 29.523 38.8966 29.4927 38.8977C29.473 38.8978 29.4537 38.8916 29.4377 38.8801C29.4217 38.8689 29.4084 38.8542 29.3987 38.8372L29.3438 38.7337C29.4373 38.6405 29.5475 38.5658 29.6685 38.5135C29.7907 38.4639 29.9214 38.4392 30.0532 38.4408C30.146 38.4391 30.2383 38.4565 30.3241 38.492C30.4001 38.5238 30.468 38.5721 30.523 38.6335C30.5787 38.6975 30.6202 38.7725 30.645 38.8537C30.6733 38.9455 30.6872 39.0411 30.6862 39.1372L30.6851 40.3165ZM29.8565 40.1183C29.9084 40.1186 29.9602 40.1128 30.0109 40.1012C30.0567 40.09 30.1009 40.0734 30.1428 40.0517C30.1848 40.0302 30.2244 40.0044 30.2609 39.9746C30.3001 39.9429 30.3368 39.9083 30.3708 39.8711V39.4912C30.2453 39.4895 30.1199 39.4989 29.996 39.5193C29.9094 39.5332 29.8248 39.558 29.7444 39.5931C29.6889 39.6172 29.6405 39.6551 29.6037 39.7032C29.5748 39.7436 29.5594 39.7922 29.5597 39.8419C29.5587 39.8851 29.5665 39.928 29.5828 39.968C29.5968 40.0012 29.6182 40.0307 29.6454 40.0544C29.6725 40.0781 29.7047 40.0952 29.7394 40.1045C29.7776 40.1148 29.817 40.1197 29.8565 40.1188V40.1183Z"
            fill="white" />
        <path
            d="M31.1698 40.3163V38.4742H31.3528C31.3785 38.4714 31.4042 38.4785 31.4248 38.494C31.4405 38.5137 31.4499 38.5377 31.4517 38.5628L31.4732 38.8502C31.5261 38.7338 31.6049 38.631 31.7034 38.5496C31.768 38.5007 31.8429 38.4671 31.9224 38.4513C32.0019 38.4356 32.0839 38.4381 32.1623 38.4588C32.2018 38.47 32.2399 38.4861 32.2755 38.5067L32.2337 38.7489C32.2314 38.7617 32.2245 38.7733 32.2145 38.7816C32.2044 38.7899 32.1918 38.7943 32.1787 38.7941C32.1524 38.7921 32.1265 38.7864 32.1018 38.777C32.0544 38.7637 32.0053 38.7578 31.9562 38.7594C31.8541 38.7562 31.7546 38.7913 31.677 38.8579C31.5934 38.9372 31.5293 39.0348 31.4897 39.1431V40.3163H31.1698Z"
            fill="white" />
        <path
            d="M33.3355 38.445C33.4386 38.4439 33.541 38.4626 33.6372 38.5001C33.7271 38.5358 33.8084 38.5902 33.8757 38.6597C33.9453 38.734 33.9988 38.8219 34.0328 38.918C34.0714 39.0305 34.09 39.1491 34.0878 39.2681C34.0909 39.3029 34.0852 39.3379 34.0713 39.3699C34.0643 39.3792 34.0549 39.3865 34.0442 39.391C34.0335 39.3956 34.0218 39.3972 34.0103 39.3958H32.8013C32.8019 39.4987 32.8176 39.6009 32.8481 39.6992C32.8729 39.7783 32.9133 39.8516 32.9667 39.915C33.0155 39.9715 33.0768 40.0157 33.1459 40.0438C33.2202 40.0733 33.2995 40.0879 33.3794 40.0867C33.4495 40.0881 33.5194 40.0787 33.5866 40.0587C33.6382 40.0426 33.6884 40.0221 33.7366 39.9976C33.7726 39.9792 33.8074 39.9588 33.841 39.9364C33.8623 39.9204 33.8876 39.9106 33.9141 39.9084C33.9261 39.9079 33.9379 39.9105 33.9486 39.9159C33.9593 39.9213 33.9684 39.9293 33.9751 39.9392L34.0647 40.0576C34.0243 40.1069 33.9764 40.1496 33.9229 40.1842C33.8676 40.2201 33.8084 40.2496 33.7465 40.2723C33.6832 40.2954 33.6179 40.3127 33.5514 40.324C33.4857 40.3354 33.4192 40.3411 33.3525 40.3411C33.2337 40.3424 33.1157 40.3205 33.0052 40.2767C32.9009 40.2344 32.8071 40.1698 32.7305 40.0873C32.6499 39.9982 32.5885 39.8935 32.5502 39.7795C32.5052 39.6434 32.4835 39.5007 32.4859 39.3573C32.4849 39.2348 32.5046 39.1131 32.5442 38.9972C32.5796 38.8906 32.6356 38.792 32.709 38.7071C32.7835 38.6245 32.8747 38.5588 32.9766 38.5144C33.09 38.466 33.2123 38.4423 33.3355 38.445ZM33.3426 38.6834C33.2759 38.6798 33.2091 38.6899 33.1464 38.7132C33.0837 38.7365 33.0265 38.7725 32.9783 38.8189C32.8837 38.9225 32.8258 39.0544 32.8134 39.1943H33.8026C33.8035 39.1243 33.7933 39.0546 33.7723 38.9879C33.7536 38.9283 33.7229 38.8733 33.6822 38.826C33.6426 38.7805 33.5935 38.7444 33.5382 38.7203C33.4763 38.6946 33.4097 38.6821 33.3426 38.6834Z"
            fill="white" />
        <path
            d="M36.3859 40.0598C36.4497 40.06 36.5136 40.0567 36.5771 40.0498C36.6327 40.0438 36.6877 40.0338 36.7419 40.0201C36.7915 40.0074 36.8402 39.9912 36.8876 39.9717C36.9332 39.9529 36.9782 39.9315 37.0238 39.9073V39.3325H36.6254C36.6052 39.3333 36.5855 39.3262 36.5705 39.3127C36.5639 39.3063 36.5586 39.2986 36.5551 39.29C36.5516 39.2815 36.5499 39.2723 36.5502 39.2631V39.0633H37.3398V40.0636C37.276 40.1105 37.2083 40.1519 37.1376 40.1875C37.0655 40.2232 36.9905 40.2527 36.9134 40.2756C36.8298 40.3005 36.7443 40.3189 36.6579 40.3306C36.5596 40.3425 36.4607 40.3482 36.3617 40.3477C36.1858 40.3497 36.0113 40.3166 35.8484 40.2502C35.6969 40.1874 35.5601 40.0937 35.4467 39.975C35.3317 39.8538 35.2424 39.7105 35.1841 39.5538C35.1194 39.3812 35.0873 39.1981 35.0895 39.0137C35.0872 38.8283 35.1185 38.644 35.1819 38.4698C35.2395 38.3125 35.3293 38.169 35.4456 38.0486C35.563 37.9296 35.7045 37.837 35.8605 37.7772C36.0342 37.7105 36.2191 37.6777 36.4051 37.6803C36.5001 37.6798 36.595 37.6875 36.6886 37.7034C36.7715 37.7176 36.8528 37.7395 36.9315 37.769C37.004 37.7962 37.0734 37.8309 37.1387 37.8725C37.2006 37.9133 37.2588 37.9593 37.3129 38.0101L37.214 38.1703C37.2066 38.1849 37.1953 38.1971 37.1815 38.2058C37.1677 38.2144 37.1517 38.2191 37.1354 38.2193C37.1131 38.2184 37.0915 38.2115 37.0728 38.1995C37.0425 38.1824 37.009 38.162 36.9722 38.1378C36.9292 38.1104 36.8837 38.087 36.8365 38.0679C36.7754 38.0439 36.7123 38.0254 36.648 38.0129C36.5633 37.9961 36.4771 37.9881 36.3908 37.9892C36.2564 37.9874 36.1229 38.0119 35.9979 38.0613C35.884 38.1067 35.7815 38.1769 35.6979 38.2666C35.6131 38.3604 35.5484 38.4706 35.5077 38.5904C35.462 38.7279 35.4397 38.8721 35.4418 39.017C35.4395 39.1667 35.4628 39.3156 35.5105 39.4575C35.5519 39.5799 35.6184 39.6924 35.7056 39.7878C35.7887 39.8773 35.8904 39.9476 36.0034 39.9937C36.1253 40.0405 36.2553 40.063 36.3859 40.0598Z"
            fill="white" />
        <path
            d="M37.8229 40.3163V38.4742H38.0058C38.0315 38.4714 38.0572 38.4785 38.0778 38.494C38.0935 38.5137 38.1029 38.5377 38.1048 38.5628L38.1262 38.8502C38.1793 38.7338 38.2583 38.631 38.357 38.5496C38.4216 38.5007 38.4965 38.4671 38.576 38.4513C38.6555 38.4356 38.7375 38.4381 38.8158 38.4588C38.8554 38.47 38.8934 38.4861 38.929 38.5067L38.8873 38.7489C38.8849 38.7617 38.8781 38.7733 38.8681 38.7816C38.858 38.7899 38.8453 38.7943 38.8323 38.7941C38.806 38.7921 38.7801 38.7864 38.7554 38.777C38.708 38.7637 38.6589 38.7578 38.6098 38.7594C38.5077 38.7562 38.4081 38.7913 38.3306 38.8579C38.247 38.9372 38.1828 39.0348 38.1432 39.1431V40.3163H37.8229Z"
            fill="white" />
        <path
            d="M40.0055 38.4452C40.1286 38.4435 40.2507 38.4663 40.3649 38.5123C40.4697 38.5545 40.5636 38.6198 40.6397 38.7034C40.7172 38.79 40.7759 38.8918 40.8122 39.0023C40.8921 39.2579 40.8921 39.5318 40.8122 39.7874C40.7758 39.8976 40.717 39.9992 40.6397 40.0858C40.5634 40.1688 40.4695 40.2337 40.3649 40.2757C40.1332 40.3638 39.8773 40.3638 39.6456 40.2757C39.5412 40.2334 39.4474 40.1686 39.3708 40.0858C39.2932 39.9992 39.2339 39.8976 39.1966 39.7874C39.1153 39.532 39.1153 39.2576 39.1966 39.0023C39.2338 38.8918 39.293 38.7901 39.3708 38.7034C39.4472 38.6201 39.541 38.5548 39.6456 38.5123C39.7599 38.4662 39.8823 38.4434 40.0055 38.4452ZM40.0055 40.0891C40.1847 40.0891 40.3188 40.0285 40.4072 39.9063C40.4957 39.7841 40.5402 39.6145 40.5402 39.3965C40.5402 39.1785 40.4957 39.0062 40.4072 38.8834C40.3188 38.7606 40.1874 38.7001 40.0055 38.7001C39.9241 38.6979 39.8432 38.7139 39.7687 38.7469C39.7024 38.778 39.6447 38.8249 39.6005 38.8834C39.553 38.9495 39.5188 39.0243 39.5 39.1036C39.4561 39.2968 39.4561 39.4973 39.5 39.6905C39.519 39.7687 39.5531 39.8424 39.6005 39.9074C39.6447 39.9656 39.7025 40.0121 39.7687 40.0428C39.8432 40.0758 39.9241 40.0916 40.0055 40.0891Z"
            fill="white" />
        <path
            d="M41.5403 38.4744V39.6492C41.5331 39.765 41.5669 39.8797 41.636 39.9729C41.6719 40.0127 41.7164 40.0437 41.7661 40.0635C41.8158 40.0834 41.8694 40.0916 41.9228 40.0874C42.015 40.0876 42.1057 40.0645 42.1866 40.0203C42.273 39.9719 42.3502 39.9085 42.4146 39.8331V38.4744H42.7339V40.3165H42.5438C42.5236 40.318 42.5036 40.312 42.4877 40.2996C42.4717 40.2871 42.461 40.2692 42.4575 40.2493L42.4322 40.0511C42.3565 40.1369 42.2667 40.2091 42.1668 40.2647C42.063 40.32 41.9469 40.3479 41.8294 40.3456C41.7393 40.3473 41.6499 40.3302 41.5667 40.2955C41.4931 40.2637 41.4277 40.2155 41.3755 40.1546C41.322 40.0901 41.2827 40.0151 41.2601 39.9344C41.2332 39.8418 41.2201 39.7457 41.2211 39.6492V38.4744H41.5403Z"
            fill="white" />
        <path
            d="M43.2592 40.9402V38.4743H43.4494C43.4695 38.4728 43.4895 38.4788 43.5055 38.4912C43.5214 38.5036 43.5322 38.5216 43.5357 38.5415L43.5626 38.7617C43.6367 38.6693 43.727 38.5911 43.8291 38.531C43.9342 38.4713 44.0534 38.4411 44.1742 38.4435C44.2721 38.4421 44.3691 38.463 44.4577 38.5046C44.5446 38.5457 44.62 38.6075 44.6776 38.6846C44.7416 38.7736 44.7884 38.8739 44.8155 38.9803C44.8497 39.1127 44.8659 39.2492 44.8638 39.386C44.8647 39.5143 44.8462 39.642 44.8089 39.7648C44.7766 39.8747 44.7244 39.9777 44.655 40.0687C44.5885 40.1534 44.504 40.2222 44.4077 40.2702C44.3053 40.3208 44.1922 40.3461 44.078 40.344C43.9792 40.347 43.8809 40.3282 43.7901 40.2889C43.7094 40.2507 43.6376 40.1962 43.5791 40.1287V40.9435L43.2592 40.9402ZM44.0687 38.7033C43.9721 38.7011 43.8768 38.7263 43.7939 38.776C43.7095 38.8302 43.6361 38.8999 43.5774 38.9814V39.8727C43.6266 39.9445 43.6932 40.0026 43.7708 40.0417C43.8443 40.0753 43.9242 40.0921 44.0049 40.0907C44.0798 40.0945 44.1545 40.0798 44.2224 40.0478C44.2903 40.0159 44.3492 39.9676 44.394 39.9074C44.4852 39.7844 44.5307 39.6099 44.5303 39.3838C44.532 39.2798 44.5215 39.1759 44.499 39.0744C44.4826 38.9986 44.4519 38.9266 44.4083 38.8625C44.3717 38.8097 44.3216 38.7679 44.2632 38.7413C44.2017 38.7153 44.1355 38.7024 44.0687 38.7033Z"
            fill="white" />
    </g>
    <defs>
        <clipPath id="clip0_709_181">
            <rect width="45" height="41" fill="white" />
        </clipPath>
    </defs>
</svg>