<svg xmlns="http://www.w3.org/2000/svg" width="280" height="77" viewBox="0 0 280 77" fill="none">
    <path
        d="M69.1585 58.2873C69.1585 49.9387 80.4446 49.4265 84.8051 49.4265H85.9337V49.1704C85.9337 44.612 84.2408 42.973 80.1881 42.973C78.9569 42.973 75.9302 43.2804 75.9302 44.9706V46.4559H71.2618V43.895C71.2618 39.6439 77.7257 39.0292 80.2394 39.0292C88.6526 39.0292 90.9099 43.434 90.9099 49.1704V60.1824C90.9099 60.9506 91.3203 61.3092 92.0385 61.3092H94.1418V65.5603H89.4735C87.1649 65.5603 86.2415 64.4335 86.2415 62.5896C86.2415 61.7189 86.3441 61.0531 86.3441 61.0531H86.2415C86.2415 61.0531 84.1895 66.1749 77.9822 66.1749C73.5191 66.1749 69.1585 63.4603 69.1585 58.2873ZM74.186 58.0312C74.186 60.1311 75.7763 62.1799 79.0595 62.1799C83.2661 62.1799 85.985 57.7751 85.985 53.9337V53.063H84.7025C80.9576 53.063 74.186 53.2679 74.186 58.0312Z"
        fill="#07800A" />
    <path
        d="M99.8105 65.5603V45.0218C99.8105 44.2535 99.4001 43.895 98.6819 43.895H96.5786V39.6439H101.35C103.555 39.6439 104.633 40.617 104.633 42.5121V43.4852C104.633 44.3047 104.53 44.9706 104.53 44.9706H104.633C105.659 42.717 108.737 39.0292 114.38 39.0292C120.536 39.0292 123.306 42.3584 123.306 48.9656V60.1824C123.306 60.9506 123.716 61.3092 124.435 61.3092H126.538V65.5603H121.613C119.305 65.5603 118.33 64.5871 118.33 62.2823V50.0924C118.33 46.4559 117.612 43.5877 113.456 43.5877C109.455 43.5877 106.274 46.1998 105.248 49.9387C104.889 50.9631 104.787 52.1411 104.787 53.4216V65.5603H99.8105Z"
        fill="#07800A" />
    <path
        d="M129.746 58.2873C129.746 49.9387 141.032 49.4265 145.392 49.4265H146.521V49.1704C146.521 44.612 144.828 42.973 140.775 42.973C139.544 42.973 136.518 43.2804 136.518 44.9706V46.4559H131.849V43.895C131.849 39.6439 138.313 39.0292 140.827 39.0292C149.24 39.0292 151.497 43.434 151.497 49.1704V60.1824C151.497 60.9506 151.908 61.3092 152.626 61.3092H154.729V65.5603H150.061C147.752 65.5603 146.829 64.4335 146.829 62.5896C146.829 61.7189 146.932 61.0531 146.932 61.0531H146.829C146.829 61.0531 144.777 66.1749 138.57 66.1749C134.106 66.1749 129.746 63.4603 129.746 58.2873ZM134.773 58.0312C134.773 60.1311 136.364 62.1799 139.647 62.1799C143.853 62.1799 146.572 57.7751 146.572 53.9337V53.063H145.29C141.545 53.063 134.773 53.2679 134.773 58.0312Z"
        fill="#07800A" />
    <path
        d="M160.295 62.2823V34.7781C160.295 34.0099 159.885 33.6513 159.167 33.6513H157.063V29.4002H161.988C164.297 29.4002 165.271 30.3734 165.271 32.6782V60.1824C165.271 60.9506 165.682 61.3092 166.4 61.3092H168.503V65.5603H163.579C161.27 65.5603 160.295 64.5871 160.295 62.2823Z"
        fill="#07800A" />
    <path
        d="M172.358 70.1699C172.358 70.2211 173.948 72.0138 176.154 72.0138C178.155 72.0138 179.745 70.5797 180.72 68.2748L181.9 65.4578L173.025 44.9193C172.666 44.0998 172.204 43.895 171.383 43.895H170.767V39.6439H173.692C175.795 39.6439 176.564 40.2073 177.385 42.256L183.285 56.8532C183.798 58.1848 184.208 59.9775 184.208 59.9775H184.311C184.311 59.9775 184.67 58.1848 185.183 56.8532L190.569 42.256C191.339 40.2073 192.262 39.6439 194.366 39.6439H197.341V43.895H196.674C195.853 43.895 195.392 44.0998 195.032 44.9193L184.772 70.2211C183.182 74.2161 180.053 76.3161 176.41 76.3161C172.563 76.3161 170.306 73.7552 170.306 73.7552L172.358 70.1699Z"
        fill="#07800A" />
    <path
        d="M202.905 56.0849V43.6389H199.519V39.6439H203.007V32.5245H207.881V39.6439H214.088V43.6389H207.881V55.5215C207.881 60.6945 211.472 61.3604 213.37 61.3604C214.088 61.3604 214.55 61.2579 214.55 61.2579V65.6627C214.55 65.6627 213.883 65.7651 212.806 65.7651C209.522 65.7651 202.905 64.7408 202.905 56.0849Z"
        fill="#07800A" />
    <path
        d="M221.379 34.5733V29.4002H225.842V34.5733H221.379ZM221.276 62.2823V45.0218C221.276 44.2535 220.866 43.895 220.148 43.895H218.044V39.6439H222.918C225.226 39.6439 226.201 40.617 226.201 42.9218V60.1824C226.201 60.9506 226.612 61.3092 227.33 61.3092H229.433V65.5603H224.559C222.251 65.5603 221.276 64.5871 221.276 62.2823Z"
        fill="#07800A" />
    <path
        d="M232.919 52.6021C232.919 44.9706 238.51 39.0292 246.872 39.0292C250.002 39.0292 256.209 40.3097 256.209 44.7145V47.3778H251.695V45.9437C251.695 44.0998 248.77 43.2804 246.872 43.2804C241.794 43.2804 237.997 47.0705 237.997 52.5509C237.997 58.4409 242.307 61.7701 247.129 61.7701C252.002 61.7701 255.183 58.1849 255.183 58.1849L257.338 61.7189C257.338 61.7189 253.644 66.1749 246.77 66.1749C238.613 66.1749 232.919 60.3872 232.919 52.6021Z"
        fill="#07800A" />
    <path
        d="M260.095 61.6165L262.66 58.2873C262.66 58.2873 265.738 62.1287 270.509 62.1287C272.921 62.1287 275.024 61.0531 275.024 58.7995C275.024 54.1386 260.865 54.6508 260.865 46.3022C260.865 41.3341 265.225 39.0292 270.509 39.0292C273.639 39.0292 279.025 40.1048 279.025 44.0486V46.5071H274.562V45.2266C274.562 43.6901 272.254 43.0243 270.663 43.0243C267.739 43.0243 265.841 44.0486 265.841 46.0974C265.841 51.0143 280 49.9387 280 58.5946C280 63.2042 275.896 66.1749 270.458 66.1749C263.533 66.1749 260.095 61.6165 260.095 61.6165Z"
        fill="#07800A" />
    <path
        d="M68.2727 18.4304C68.2727 13.9779 74.292 13.7047 76.6176 13.7047H77.2195V13.5681C77.2195 11.137 76.3166 10.2628 74.1552 10.2628C73.4985 10.2628 71.8843 10.4267 71.8843 11.3282V12.1204H69.3945V10.7545C69.3945 8.48727 72.8419 8.15948 74.1825 8.15948C78.6696 8.15948 79.8735 10.5087 79.8735 13.5681V19.4411C79.8735 19.8509 80.0923 20.0421 80.4754 20.0421H81.5972V22.3094H79.1074C77.8762 22.3094 77.3837 21.7084 77.3837 20.725C77.3837 20.2606 77.4384 19.9055 77.4384 19.9055H77.3837C77.3837 19.9055 76.2893 22.6372 72.9787 22.6372C70.5984 22.6372 68.2727 21.1894 68.2727 18.4304ZM70.954 18.2938C70.954 19.4138 71.8022 20.5065 73.5532 20.5065C75.7968 20.5065 77.2469 18.1573 77.2469 16.1085V15.6442H76.5629C74.5656 15.6442 70.954 15.7534 70.954 18.2938Z"
        fill="#07800A" />
    <path
        d="M84.7535 27.7726V11.3555C84.7535 10.9457 84.5346 10.7545 84.1515 10.7545H83.0298V8.48727H85.5196C86.7508 8.48727 87.2159 9.00628 87.2159 9.88041C87.2159 10.2902 87.1885 10.6179 87.1885 10.6179H87.2432C87.2432 10.6179 88.3924 8.15948 91.8398 8.15948C95.5607 8.15948 97.9411 11.1096 97.9411 15.3983C97.9411 19.7963 95.2598 22.6372 91.6482 22.6372C88.5839 22.6372 87.4074 20.4245 87.4074 20.4245H87.3527C87.3527 20.4245 87.4074 20.9162 87.4074 21.6264V27.7726H84.7535ZM87.3253 15.4529C87.3253 17.9114 88.666 20.3699 91.2378 20.3699C93.4266 20.3699 95.2324 18.567 95.2324 15.4256C95.2324 12.4208 93.6182 10.4814 91.3199 10.4814C89.2679 10.4814 87.3253 11.9291 87.3253 15.4529Z"
        fill="#07800A" />
    <path
        d="M101.551 27.7726V11.3555C101.551 10.9457 101.332 10.7545 100.949 10.7545H99.8271V8.48727H102.317C103.548 8.48727 104.013 9.00628 104.013 9.88041C104.013 10.2902 103.986 10.6179 103.986 10.6179H104.041C104.041 10.6179 105.19 8.15948 108.637 8.15948C112.358 8.15948 114.738 11.1096 114.738 15.3983C114.738 19.7963 112.057 22.6372 108.446 22.6372C105.381 22.6372 104.205 20.4245 104.205 20.4245H104.15C104.15 20.4245 104.205 20.9162 104.205 21.6264V27.7726H101.551ZM104.123 15.4529C104.123 17.9114 105.463 20.3699 108.035 20.3699C110.224 20.3699 112.03 18.567 112.03 15.4256C112.03 12.4208 110.415 10.4814 108.117 10.4814C106.065 10.4814 104.123 11.9291 104.123 15.4529Z"
        fill="#07800A" />
    <path
        d="M121.501 22.3094L117.233 11.3009C117.069 10.8911 116.822 10.7545 116.385 10.7545H116.111V8.48727H117.479C118.71 8.48727 119.175 8.78775 119.586 9.88041L122.568 17.8295C122.842 18.5943 123.06 19.6324 123.06 19.6324H123.115C123.115 19.6324 123.334 18.5943 123.608 17.8295L126.563 9.88041C126.973 8.78775 127.465 8.48727 128.669 8.48727H129.955V10.7545H129.682C129.216 10.7545 128.943 10.8911 128.779 11.3009L124.565 22.3094H121.501Z"
        fill="#07800A" />
    <path
        d="M131.481 18.4304C131.481 13.9779 137.5 13.7047 139.826 13.7047H140.428V13.5681C140.428 11.137 139.525 10.2628 137.363 10.2628C136.707 10.2628 135.092 10.4267 135.092 11.3282V12.1204H132.603V10.7545C132.603 8.48727 136.05 8.15948 137.391 8.15948C141.878 8.15948 143.082 10.5087 143.082 13.5681V19.4411C143.082 19.8509 143.3 20.0421 143.683 20.0421H144.805V22.3094H142.315C141.084 22.3094 140.592 21.7084 140.592 20.725C140.592 20.2606 140.646 19.9055 140.646 19.9055H140.592C140.592 19.9055 139.497 22.6372 136.187 22.6372C133.806 22.6372 131.481 21.1894 131.481 18.4304ZM134.162 18.2938C134.162 19.4138 135.01 20.5065 136.761 20.5065C139.005 20.5065 140.455 18.1573 140.455 16.1085V15.6442H139.771C137.774 15.6442 134.162 15.7534 134.162 18.2938Z"
        fill="#07800A" />
    <path
        d="M27.9302 71.2513C21.0901 71.2513 21.0901 66.6985 19.3801 67.8367C17.6701 68.975 19.3801 70.113 20.5201 71.2513C21.9178 72.6468 25.0802 73.5275 27.9302 73.5275C30.7802 73.5275 38.7602 72.3894 38.7602 67.2675C38.7602 62.1457 34.2002 66.6984 38.1902 59.8694C42.1803 53.0403 57.0004 47.3494 57.0004 29.1384C57.0004 10.9275 42.1803 0.683899 28.5002 0.683899C14.8201 0.683899 0 10.3584 0 29.1384C0 42.6931 8.96995 51.0906 14.7708 54.4145C15.77 54.987 17.0117 54.6435 17.6813 53.7075C18.5633 52.4747 18.1057 50.7358 16.827 49.9202C11.6556 46.6214 4.56003 39.5556 4.56003 29.1384C4.56003 13.773 15.3901 4.66754 29.0702 4.66754C42.7503 4.66754 53.0103 17.7566 53.0103 29.7075C53.0103 41.6584 42.7503 49.0566 39.3302 52.4712C37.3536 54.4446 35.258 57.131 33.8171 59.1139C32.3762 61.0968 32.4452 61.0531 30.239 60.4717C26.5027 59.4871 21.6601 57.75 21.6601 55.8857C21.6601 53.0403 29.6402 52.4712 33.0602 50.7639C36.4802 49.0566 41.0403 45.6421 41.0403 39.9512V22.3087C41.0403 20.4229 39.5091 18.8948 37.6202 18.8948C35.7314 18.8948 34.2002 20.4224 34.2002 22.3082V39.3821C34.2002 45.073 34.2002 49.0566 27.9302 50.1948C21.6601 51.333 18.2401 53.6094 18.2401 56.4548C18.2401 59.3003 23.9401 62.1457 31.9202 64.4221C39.9002 66.6985 34.7702 71.2513 27.9302 71.2513Z"
        fill="#07800A" />
    <path
        d="M25.0802 15.4803C25.0802 13.5945 26.6114 12.0657 28.5002 12.0657C30.389 12.0657 31.9202 13.5945 31.9202 15.4803V40.5203C31.9202 42.4061 30.389 43.9348 28.5002 43.9348C26.6114 43.9348 25.0802 42.4061 25.0802 40.5203V15.4803Z"
        fill="#07800A" />
    <path
        d="M15.9601 31.4148C15.9601 29.529 17.4913 28.0003 19.3801 28.0003C21.2689 28.0003 22.8001 29.529 22.8001 31.4148V40.5203C22.8001 42.4061 21.2689 43.9348 19.3801 43.9348C17.4913 43.9348 15.9601 42.4061 15.9601 40.5203V31.4148Z"
        fill="#07800A" />
</svg>