<svg height="100%" style="fill-rule:evenodd;clip-rule:evenodd;stroke-linecap:round;stroke-linejoin:round;" xmlns:xlink="http://www.w3.org/1999/xlink" xmlns="http://www.w3.org/2000/svg" xml:space="preserve" width="100%" version="1.1" viewBox="0 0 417 535">
    <style type="text/css">
        :root {
            --linear-stop-color1: #40b93c;
            --linear-stop-color2: #3aa836;
            --radial-stop-color1: #73cb5f;
            --radial-stop-color2: #40b93c;
            fill: #40b93c;
        }
    </style>
    <defs>
        <linearGradient y1="0" id="LinearGradient" x1="0" y2="0" x2="1" gradientUnits="userSpaceOnUse" gradientTransform="matrix(-34.4444 39.5556 -39.5556 -34.4444 227.49 161.225)">
            <stop stop-color="var(--linear-stop-color1)" offset="0"/>
            <stop stop-color="var(--linear-stop-color1)" offset="0.00367984"/>
            <stop stop-color="var(--linear-stop-color2)" offset="0.547739"/>
            <stop stop-color="var(--linear-stop-color2)" offset="1"/>
        </linearGradient>
        <radialGradient cx="0" r="1" id="RadialGradient" gradientUnits="userSpaceOnUse" gradientTransform="matrix(-51.0391 62.3873 -62.3873 -51.0391 204.924 182.821)" cy="0">
            <stop stop-color="var(--radial-stop-color1)" offset="0"/>
            <stop stop-color="var(--radial-stop-color2)" offset="1"/>
        </radialGradient>
    </defs>
    <g id="paths">
        <path d="M199.994+0.0399679C304.296-1.7587+372.117+57.3853+401.96+130.145C417.994+169.239+422.564+224.889+408.389+270.085C401.122+293.263+390.134+313.859+377.376+331.735C352.501+366.587+314.968+389.58+288.874+423.64C284.673+429.124+264.948+453.125+267.317+459.949C282.276+466.74+288.36+493.156+277.906+509.117C268.126+524.047+233.078+536.176+199.237+534.457C176.694+533.312+157.485+529.061+144.776+516.303C138.548+510.052+130.066+486.833+149.313+492.099C153.164+497.381+153.902+503.988+159.525+507.604C176.777+518.696+216.728+518.924+238.194+511.385C247.094+508.261+266.729+501.523+263.156+487.18C260.444+476.295+245.9+471.469+235.925+467.513C210.681+457.501+177.545+453.637+154.986+440.281C144.705+434.195+130.309+425.488+133.428+406.62C138.64+375.095+171.197+372.967+199.237+364.26C219.446+357.987+236.305+350.255+251.052+338.92C266.893+326.747+273.693+309.311+264.668+284.836C261.138+275.263+255.32+266.617+249.918+258.739C242.852+263.311+235.909+268.092+226.848+270.843C214.78+274.504+198.374+273.059+187.892+269.329C165.24+261.271+150.578+244.653+145.152+219.405C142.116+205.268+144.485+189.237+141.749+175.909C139.101+165.196+136.454+154.477+133.806+143.763C134.689+143.636+135.477+143.983+136.36+143.857C135.856+143.731+138.566+143.888+138.062+143.763C212.304+143.369+260.941+134.789+273.368+198.981C275.905+212.092+272.258+226.851+268.072+235.291C266.638+238.181+261.048+245.36+262.021+247.392C264.29+250.417+266.56+253.444+268.829+256.471C273.902+263.975+278.592+272.573+282.066+281.432C299.812+326.652+269.265+353.735+241.596+369.555C221.516+381.037+195.474+385.636+173.141+394.896C167.244+397.341+153.004+402.557+157.256+411.915C160.264+418.163+169.59+420.896+176.166+423.64C188.35+428.724+201.641+432.364+215.122+436.5C223.19+439.272+231.261+442.047+239.328+444.82C242.112+430.244+257.326+414.127+265.425+403.595C292.241+368.723+330.065+344.645+355.438+308.663C365.596+294.264+373.457+276.837+379.266+258.36C381.284+248.276+383.302+238.188+385.318+228.103C389.996+202.389+383.674+173.769+377.756+155.108C359.765+98.3986+321.128+61.8573+267.317+40.8866C235.645+28.544+184.017+28.9826+151.961+40.5093C97.6424+60.04+57.989+98.8666+40.3877+155.108C32.5437+180.173+28.7717+218.935+36.2277+248.149C47.569+292.584+70.9957+327.76+103.55+351.023C112.145+357.165+121.458+362.716+131.16+367.665C135.824+369.807+140.488+371.951+145.152+374.095C144.901+374.095+144.649+374.095+144.397+374.095C136.024+380.537+126.39+385.632+124.73+398.679C108.142+395.291+85.6744+376.092+73.6704+366.529C27.5264+329.767-16.279+248.119+5.96903+160.781C10.621+142.521+16.637+124.488+25.2597+109.721C51.941+64.028+87.3117+32.0733+139.481+11.7653C151.717+7.00264+165.53+4.65731+179.57+1.93197C186.378+1.30131+193.186+0.67064+199.994+0.0399734L199.994+0.0399734" opacity="1"/>
        <path d="M133.806+143.763C199.948+143.347+244.949+134.073+268.072+179.88C276.813+197.192+276.468+233.721+262.4+245.88C262.273+245.88+261.769+247.015+261.642+247.015C258.688+239.793+252.197+231.764+247.65+225.835C228.557+200.937+205.46+180.795+177.68+164.564C169.073+159.535+162.504+156.289+153.658+152.459C149.881+150.824+149.477+150.136+141.746+147.165C139.098+145.653+134.185+144.897+133.806+143.763L133.806+143.763" opacity="1" fill="url(#LinearGradient)"/>
        <path d="M134.185+144.897C144.262+145.471+153.334+152.675+161.416+156.243C192.125+169.805+219.626+191.203+239.328+216C244.158+222.08+264.537+242.083+258.618+249.663C227.524+289.472+164.749+272.329+148.557+231.129C144.036+219.624+146.033+204.741+143.64+189.904C141.049+173.849+139.288+158.363+134.185+144.897L134.185+144.897" opacity="1" fill="url(#RadialGradient)"/>
    </g>
</svg>